inDegrees=no
num_controls=7
num_derivatives=13
num_iterations=112
num_multipliers=7
num_parameters=0
num_slacks=7
num_states=26
objective=5.577110
objective_accelerations=0.878630
objective_balance=0.023610
objective_effort=0.199479
objective_height=4.425239
objective_ligament=0.050153
solver_duration=1229.619751
status=Solve_Succeeded
success=true
DataType=double
version=3
OpenSimVersion=4.4-2022-07-23-0e9fedc
endheader
time	/jointset/ground_pelvis/pelvis_tilt/value	/jointset/ground_pelvis/pelvis_tx/value	/jointset/ground_pelvis/pelvis_ty/value	/jointset/hip_l/hip_flexion_l/value	/jointset/hip_l/hip_adduction_l/value	/jointset/hip_l/hip_rotation_l/value	/jointset/back/lumbar_extension/value	/jointset/patellofemoral_l/patellar_flexion_l/value	/jointset/knee_l/knee_flexion_l/value	/jointset/knee_l/knee_adduction_l/value	/jointset/knee_l/knee_rotation_l/value	/jointset/ankle_l/ankle_angle_l/value	/jointset/subtalar_l/subtalar_angle_l/value	/jointset/ground_pelvis/pelvis_tilt/speed	/jointset/ground_pelvis/pelvis_tx/speed	/jointset/ground_pelvis/pelvis_ty/speed	/jointset/hip_l/hip_flexion_l/speed	/jointset/hip_l/hip_adduction_l/speed	/jointset/hip_l/hip_rotation_l/speed	/jointset/back/lumbar_extension/speed	/jointset/patellofemoral_l/patellar_flexion_l/speed	/jointset/knee_l/knee_flexion_l/speed	/jointset/knee_l/knee_adduction_l/speed	/jointset/knee_l/knee_rotation_l/speed	/jointset/ankle_l/ankle_angle_l/speed	/jointset/subtalar_l/subtalar_angle_l/speed	/forceset/tau_hip_flexion_l	/forceset/tau_hip_adduction_l	/forceset/tau_hip_rotation_l	/forceset/tau_knee_flexion_l	/forceset/tau_ankle_angle_l	/forceset/tau_subtalar_angle_l	/forceset/tau_lumbar_extension	lambda_cid13_p0	lambda_cid13_p1	lambda_cid13_p2	lambda_cid13_p3	lambda_cid13_p4	lambda_cid13_p5	lambda_cid14_p0	/jointset/ground_pelvis/pelvis_tilt/accel	/jointset/ground_pelvis/pelvis_tx/accel	/jointset/ground_pelvis/pelvis_ty/accel	/jointset/hip_l/hip_flexion_l/accel	/jointset/hip_l/hip_adduction_l/accel	/jointset/hip_l/hip_rotation_l/accel	/jointset/back/lumbar_extension/accel	/jointset/patellofemoral_l/patellar_flexion_l/accel	/jointset/knee_l/knee_flexion_l/accel	/jointset/knee_l/knee_adduction_l/accel	/jointset/knee_l/knee_rotation_l/accel	/jointset/ankle_l/ankle_angle_l/accel	/jointset/subtalar_l/subtalar_angle_l/accel	gamma_cid13_p0	gamma_cid13_p1	gamma_cid13_p2	gamma_cid13_p3	gamma_cid13_p4	gamma_cid13_p5	gamma_cid14_p0
1	-0.5199105116709898	-0.01205724349175042	0.5472895791465303	1.886925534436786	-0.3381551779513171	0.1476096620119525	-0.4363229687066807	1.616924470580122	1.616924470580097	0.09952484697831086	-0.1745211608388121	0.4345552647769482	0.2626761230706933	-0.1526151948796321	-0.006545664529719287	0.03411306670476733	0.03668796058832639	0.000294553974085718	-0.04800207837342883	8.039300818272079e-05	-0.1568390799516854	-0.1568390799516894	-0.01571018372972649	2.171940876173432e-05	-0.05555695113157492	-0.03453668826346484	-0.277270933411916	0.03236365008802609	-0.02359686830106203	-0.2824766481920949	-0.05547992942945081	0.01207207336427358	0.230174356848412	-50.8949849430558	8.891917594690829	-7.66509096223587	10.9924758104167	-554.0267858404077	-64.33254911119609	-0.02325219757383672	1.604862536465302	0.09454173534592228	2.272754066514192	-7.300303415067959	-0.2700375916172276	-1.558022508433575	-0.01787440524675349	-6.027554058108555	-6.027554058108465	-1.097292806836972	-0.03591577003070225	-0.8675306406806608	-0.9714778926577347	2.30613786719341e-09	-1.978497471432808e-07	-1.368625548980734e-07	-2.337660171234423e-08	-1.083631033876967e-08	-3.489313064653898e-07	2.024834032831759e-08
1.01	-0.5213570874492784	-0.01211792719525189	0.547744139456217	1.886928373038954	-0.338164994196219	0.1470551826260239	-0.4363221865094867	1.615055163041075	1.615055163041049	0.0993104602430461	-0.1745209556001001	0.4339563581413307	0.2622834241015858	-0.1366852244669893	-0.005579662293409234	0.05678949422549899	-0.03611227449378933	-0.002254010116889837	-0.06288681142906544	7.188836728378914e-05	-0.2170126342807005	-0.2170126342806973	-0.02715896035584439	1.959743362293816e-05	-0.06423336919597239	-0.04399541611338396	-0.277587196638823	0.03235068162879832	-0.02355930983875227	-0.2816891606115703	-0.05546451467340588	0.01210658752783523	0.2303226823337726	-50.84746761374954	8.837710402794375	-7.621156429380886	10.784746797692	-553.8194688482702	-64.24397056887224	-0.02326618546836722	1.589275959266019	0.09933396252537149	2.263658479276931	-7.268687578298428	-0.2466695158145266	-1.45265155330064	0.007037795423000806	-6.010792521344801	-6.010792521343723	-1.167446099408508	0.01762205414597843	-0.8690567958442653	-0.9318522483230062	4.060394134166506e-09	-2.601496777896664e-07	-1.946105851250275e-07	-3.778979353762375e-08	-1.725782925837434e-08	-4.55247924588424e-07	2.711903229066119e-08
1.02	-0.5226439211903308	-0.01216860997743985	0.5484251783179964	1.886203448485579	-0.3382001768216353	0.1463520653397611	-0.4363216141008468	1.612584412678528	1.61258441267852	0.09898183053980859	-0.1745207750880665	0.4332704154437436	0.2617963814505464	-0.1206667874302495	-0.004545480267016869	0.07940877712323931	-0.1088646705164973	-0.004778722126962255	-0.07772965845157428	3.843528377884255e-05	-0.2771276446515874	-0.2771276446515771	-0.03855877733833418	1.677407455052379e-05	-0.072964163521366	-0.05340542464985656	-0.2779034598658419	0.03233771316971155	-0.02352175137624151	-0.2809016730310085	-0.05544909991730505	0.01214110169166202	0.2304710078190293	-50.80311654329205	8.782187872867478	-7.574876040247852	10.57769397886645	-553.708278374665	-64.15617408046297	-0.02328276925994049	1.622555861284583	0.1081776933624746	2.261325141915937	-7.290735603186429	-0.2652671754366266	-1.549645301807893	-0.02286409376815675	-6.015845266482878	-6.015845266482843	-1.087500878111487	-0.03605604681740253	-0.8784058928796999	-0.9617340299683647	5.571964710120649e-09	-3.191780031518554e-07	-2.480251815590501e-07	-5.142277013383568e-08	-2.334180350480089e-08	-5.512472426193798e-07	3.29878400176007e-08
1.03	-0.5237701282009771	-0.01220855090977233	0.5493320312718951	1.884751449240731	-0.3382604569001598	0.1455006796305964	-0.4363214454067435	1.609512918754559	1.609512918754542	0.09853959959199607	-0.1745206218169224	0.4324968212056476	0.2612155099214054	-0.1045601797806167	-0.003425397144044593	0.1019430890771379	-0.1815066156514563	-0.007270399432365914	-0.09253641035238742	-3.184998646137534e-06	-0.3371499652968651	-0.337149965296858	-0.04987350891894544	1.481006245668308e-05	-0.08177056098944971	-0.06275810315247542	-0.2779116993506943	0.0322887959293312	-0.02342082038904732	-0.2800330926432463	-0.0551906850823486	0.01224228615951672	0.2304375632382156	-50.64724099888085	8.670198791859653	-7.510473576991625	10.25940965383619	-553.2926211925335	-64.13685407359847	-0.0233046550416742	1.606879324364834	0.1165068881899659	2.246669613941667	-7.246638834917597	-0.2400400562980408	-1.44453071530689	0.005415723580340892	-5.992257041499827	-5.992257041500277	-1.151384085195549	0.01778541632419329	-0.8841531864129414	-0.9203217598556892	7.081058901472556e-09	-3.781729447866546e-07	-3.013955592808998e-07	-6.504778535015916e-08	-2.942233341782766e-08	-6.471412820779673e-07	3.884642443601567e-08
1.04	-0.5247348359136247	-0.01223677435758987	0.5504636644236959	1.88257388757127	-0.3383454381613817	0.1445015582862112	-0.4363216475715685	1.605841835308548	1.605841835308515	0.09798463637125548	-0.1745204777869538	0.4316346836903384	0.2605414542073488	-0.08836692782848186	-0.002201983364028165	0.1243648167036561	-0.2539771554370797	-0.009718958665999004	-0.1072767854967632	-3.573651865115422e-05	-0.3970455490601277	-0.3970455490601242	-0.06110523198594942	1.492583955220194e-05	-0.09067281896314175	-0.07204226163297339	-0.277919938835573	0.03223987868895405	-0.02331988940104783	-0.2791645122554521	-0.0549322702473907	0.01234347062736365	0.2304041186573668	-50.4948227585268	8.557039939083575	-7.443856542433214	9.942499390052912	-552.9742521497984	-64.11875551811227	-0.02332903212217969	1.639884721784849	0.1288438247713912	2.238808276439906	-7.25645453331932	-0.2566435610825153	-1.536369950520262	-0.02105034128393748	-5.990497890079824	-5.990497890079869	-1.070899175390159	-0.03564008897942986	-0.8975779940011819	-0.9480300255440685	8.288767406478125e-09	-4.313855222927079e-07	-3.477958550364888e-07	-7.743090858159523e-08	-3.491901946448993e-08	-7.270905193446737e-07	4.327753827918648e-08
1.05	-0.5255370823060674	-0.01225219381756098	0.5518188636550637	1.879672600546378	-0.3384546732135157	0.1433553249817525	-0.4363221877207468	1.60157255501151	1.601572555011494	0.09731790089313448	-0.1745203403454305	0.4306829762074514	0.259774905266226	-0.07205925583733939	-0.0008593812070945944	0.1466475537326562	-0.3262396504938077	-0.01211856171683966	-0.1219506928396449	-7.588289630395216e-05	-0.4567767621094649	-0.4567767621094646	-0.07222679196674152	1.377033075965312e-05	-0.09969080441548604	-0.08125414163313335	-0.2776366625079593	0.03215118269825293	-0.02315910846262198	-0.278172567855536	-0.05449906346414798	0.0125180246709452	0.2301922853677412	-50.25202363702247	8.384442386606674	-7.354343330504092	9.542356845529735	-552.339143025652	-64.1709492576116	-0.02335855618193333	1.629673096633717	0.1403294451303645	2.218876905758873	-7.205056914175477	-0.2301367142617576	-1.430026602961151	0.003964778001722217	-5.959380353741707	-5.95938035374213	-1.130538686653122	0.01771489638589721	-0.9072470484029443	-0.9056348540312694	9.487057608785374e-09	-4.844174009197379e-07	-3.939783357306321e-07	-8.977522268850358e-08	-4.039746039032832e-08	-8.065414815428839e-07	4.766404366688093e-08
1.06	-0.5261755590468357	-0.01225351504916735	0.5533960643546472	1.876049906586413	-0.3385876079035943	0.1420629275084381	-0.4363232370208317	1.596706973115702	1.596706973115702	0.09654039896036248	-0.1745202008233543	0.429640421224547	0.258916663951746	-0.05561299749199324	0.0006176623089199014	0.1687651103467999	-0.3982585424435657	-0.01445888625471645	-0.1365096192541126	-0.0001375667136309108	-0.5163058688140452	-0.5163058688140475	-0.08325852303673034	1.534195057114975e-05	-0.1088423189699056	-0.09038073630446963	-0.2773533861805679	0.03206248670732336	-0.02299832752267432	-0.2771806234555811	-0.05406585668092599	0.01269257871411189	0.2299804520778437	-50.01309316717544	8.210866258942026	-7.262782172939724	9.144472429985806	-551.8030588066907	-64.2251216946558	-0.02339045723974923	1.667601992625411	0.1557320965876637	2.205772193468653	-7.207733911925351	-0.2447878584897506	-1.513373764837297	-0.02535782921809067	-5.950076621128431	-5.950076621128392	-1.052933393229632	-0.0350946632584768	-0.9242838144160432	-0.9309729597791765	1.027010530646839e-08	-5.311457247587849e-07	-4.337524598904741e-07	-1.001856146121607e-07	-4.508115395003061e-08	-8.708705128478448e-07	5.090056883695182e-08
1.07	-0.5266488415550974	-0.01223934583880676	0.5551935215700815	1.87170841488027	-0.3387436412577008	0.1406254059755402	-0.4363249690196006	1.5912472263954	1.591247226395379	0.09565321497338719	-0.174520062702688	0.428505613433355	0.2579675756221532	-0.03901791675557214	0.002243306099963933	0.1906896265621275	-0.4699820939043613	-0.01673559376912251	-0.1509717646728244	-0.0002071089718731369	-0.5755980786605615	-0.5755980786605734	-0.09415819641284241	1.433632126208526e-05	-0.1181475379564732	-0.09942058339117102	-0.2768091314916982	0.03196048725277782	-0.02278233416204725	-0.2760390921727188	-0.05349046772575203	0.01292443035989665	0.2296154848379422	-49.69783180166396	7.988724906810547	-7.151695592951447	8.676059929633206	-550.960630624319	-64.32416494823698	-0.02342755672469836	1.659299228162316	0.1700272267567528	2.180275398767004	-7.146010294620874	-0.2172121734777493	-1.409201010964457	0.00250618729909689	-5.91199453856882	-5.911994538570337	-1.105492958021456	0.01757003909198684	-0.9379088185713792	-0.8878899068492019	1.103106563688415e-08	-5.775387531303858e-07	-4.731857140218958e-07	-1.10493138334581e-07	-4.972257371366183e-08	-9.34395186126569e-07	5.407592484651081e-08
